<?xml version="1.0" encoding="utf-8"?>
<!-- Generator: Adobe Illustrator 17.0.0, SVG Export Plug-In . SVG Version: 6.00 Build 0)  -->
<!DOCTYPE svg PUBLIC "-//W3C//DTD SVG 1.1//EN" "http://www.w3.org/Graphics/SVG/1.1/DTD/svg11.dtd">
<svg version="1.1" id="Layer_1" xmlns="http://www.w3.org/2000/svg" xmlns:xlink="http://www.w3.org/1999/xlink" x="0px" y="0px"
	 width="494px" height="145px" viewBox="0 0 494 145" enable-background="new 0 0 494 145" xml:space="preserve">
<g>
	<g>
		<path fill="#FFFFFF" d="M168.769,67.145h-4.721l-1.877-4.882h-8.592l-1.774,4.882h-4.604l8.372-21.495h4.589L168.769,67.145z
			 M160.779,58.641l-2.962-7.976l-2.903,7.976H160.779z"/>
		<path fill="#FFFFFF" d="M169.971,60.151l4.223-0.411c0.254,1.418,0.77,2.459,1.547,3.124s1.826,0.997,3.145,0.997
			c1.398,0,2.451-0.296,3.16-0.887s1.063-1.283,1.063-2.074c0-0.509-0.149-0.941-0.447-1.298s-0.819-0.667-1.561-0.931
			c-0.508-0.176-1.667-0.488-3.475-0.938c-2.326-0.576-3.959-1.285-4.897-2.126c-1.32-1.183-1.979-2.624-1.979-4.325
			c0-1.095,0.31-2.119,0.931-3.072s1.515-1.679,2.683-2.177c1.168-0.499,2.578-0.748,4.23-0.748c2.698,0,4.728,0.592,6.092,1.774
			c1.364,1.183,2.079,2.761,2.148,4.735l-4.34,0.191c-0.186-1.104-0.584-1.899-1.195-2.383c-0.611-0.484-1.527-0.726-2.749-0.726
			c-1.261,0-2.248,0.26-2.962,0.777c-0.46,0.333-0.689,0.777-0.689,1.335c0,0.508,0.215,0.943,0.645,1.305
			c0.547,0.46,1.876,0.938,3.988,1.437c2.111,0.499,3.673,1.014,4.684,1.547c1.012,0.533,1.804,1.261,2.375,2.185
			s0.858,2.064,0.858,3.424c0,1.231-0.342,2.385-1.026,3.46c-0.684,1.075-1.652,1.875-2.903,2.397
			c-1.251,0.523-2.81,0.784-4.677,0.784c-2.718,0-4.804-0.628-6.26-1.884C171.125,64.386,170.255,62.555,169.971,60.151z"/>
		<path fill="#FFFFFF" d="M190,60.151l4.223-0.411c0.254,1.418,0.77,2.459,1.547,3.124s1.826,0.997,3.145,0.997
			c1.398,0,2.451-0.296,3.16-0.887s1.063-1.283,1.063-2.074c0-0.509-0.149-0.941-0.447-1.298s-0.819-0.667-1.561-0.931
			c-0.508-0.176-1.667-0.488-3.475-0.938c-2.326-0.576-3.959-1.285-4.897-2.126c-1.32-1.183-1.979-2.624-1.979-4.325
			c0-1.095,0.31-2.119,0.931-3.072s1.515-1.679,2.683-2.177c1.168-0.499,2.578-0.748,4.23-0.748c2.698,0,4.728,0.592,6.092,1.774
			c1.364,1.183,2.079,2.761,2.148,4.735l-4.34,0.191c-0.186-1.104-0.584-1.899-1.195-2.383c-0.611-0.484-1.527-0.726-2.749-0.726
			c-1.261,0-2.248,0.26-2.962,0.777c-0.46,0.333-0.689,0.777-0.689,1.335c0,0.508,0.215,0.943,0.645,1.305
			c0.547,0.46,1.876,0.938,3.988,1.437c2.111,0.499,3.673,1.014,4.684,1.547c1.012,0.533,1.804,1.261,2.375,2.185
			c0.572,0.924,0.858,2.064,0.858,3.424c0,1.231-0.342,2.385-1.026,3.46c-0.684,1.075-1.652,1.875-2.903,2.397
			c-1.251,0.523-2.81,0.784-4.677,0.784c-2.718,0-4.804-0.628-6.26-1.884C191.153,64.386,190.283,62.555,190,60.151z"/>
		<path fill="#FFFFFF" d="M211.127,67.145V45.65h15.938v3.636h-11.598v4.765h10.791v3.621h-10.791v5.85h12.008v3.622L211.127,67.145
			L211.127,67.145z"/>
		<path fill="#FFFFFF" d="M231.097,67.145V45.65h6.496l3.9,14.662l3.856-14.662h6.51v21.495h-4.032v-16.92l-4.266,16.92h-4.179
			l-4.252-16.92v16.92C235.13,67.145,231.097,67.145,231.097,67.145z"/>
		<path fill="#FFFFFF" d="M256.184,45.65h8.592c1.701,0,2.969,0.071,3.805,0.213c0.836,0.142,1.583,0.437,2.243,0.887
			s1.21,1.049,1.65,1.797c0.44,0.747,0.66,1.586,0.66,2.514c0,1.007-0.271,1.931-0.814,2.771c-0.542,0.841-1.278,1.471-2.206,1.891
			c1.31,0.382,2.316,1.032,3.02,1.95c0.704,0.919,1.056,2,1.056,3.241c0,0.977-0.227,1.928-0.682,2.851
			c-0.455,0.924-1.076,1.662-1.862,2.214c-0.787,0.553-1.757,0.892-2.91,1.019c-0.724,0.078-2.468,0.127-5.234,0.147h-7.316V45.65
			H256.184z M260.524,49.228v4.97h2.845c1.691,0,2.742-0.024,3.152-0.073c0.743-0.088,1.327-0.345,1.752-0.77
			c0.425-0.425,0.638-0.984,0.638-1.679c0-0.664-0.183-1.204-0.55-1.62c-0.367-0.415-0.912-0.667-1.635-0.755
			c-0.43-0.049-1.667-0.073-3.71-0.073C263.016,49.228,260.524,49.228,260.524,49.228z M260.524,57.775v5.748h4.017
			c1.564,0,2.556-0.044,2.976-0.132c0.645-0.117,1.171-0.403,1.576-0.857c0.405-0.455,0.608-1.063,0.608-1.826
			c0-0.645-0.157-1.192-0.469-1.642c-0.313-0.449-0.765-0.777-1.356-0.982c-0.591-0.205-1.874-0.308-3.849-0.308h-3.503V57.775z"/>
		<path fill="#FFFFFF" d="M277.972,67.145V45.826h4.34v17.697h10.791v3.622C293.103,67.145,277.972,67.145,277.972,67.145z"/>
		<path fill="#FFFFFF" d="M296.196,67.145V45.65h15.938v3.636h-11.598v4.765h10.791v3.621h-10.791v5.85h12.008v3.622L296.196,67.145
			L296.196,67.145z"/>
		<path fill="#FFFFFF" d="M316.093,67.145V45.65h4.34v21.495C320.433,67.145,316.093,67.145,316.093,67.145z"/>
		<path fill="#FFFFFF" d="M343.951,67.145h-4.721l-1.877-4.882h-8.592l-1.774,4.882h-4.603l8.372-21.495h4.589L343.951,67.145z
			 M335.96,58.641l-2.962-7.976l-2.903,7.976H335.96z"/>
		<path fill="#FFFFFF" d="M353.613,67.145V45.65h7.405c1.672,0,2.947,0.103,3.827,0.308c1.231,0.284,2.282,0.797,3.152,1.54
			c1.134,0.958,1.981,2.182,2.544,3.673c0.562,1.491,0.843,3.194,0.843,5.11c0,1.633-0.19,3.079-0.571,4.34
			c-0.382,1.261-0.87,2.304-1.467,3.131c-0.596,0.826-1.249,1.476-1.957,1.95c-0.709,0.474-1.564,0.834-2.566,1.078
			s-2.153,0.366-3.453,0.366h-7.757V67.145z M356.457,64.608h4.589c1.417,0,2.529-0.132,3.336-0.396s1.449-0.636,1.928-1.114
			c0.675-0.675,1.2-1.581,1.576-2.72c0.377-1.139,0.564-2.519,0.564-4.142c0-2.248-0.369-3.975-1.107-5.183
			c-0.738-1.207-1.635-2.016-2.69-2.427c-0.763-0.293-1.99-0.44-3.68-0.44h-4.516V64.608z"/>
		<path fill="#FFFFFF" d="M375.356,67.145V45.65h15.542v2.537h-12.697v6.583h11.891v2.522h-11.891v7.316h13.196v2.537
			C391.397,67.145,375.356,67.145,375.356,67.145z"/>
		<path fill="#FFFFFF" d="M403.522,45.65h7.932c1.789,0,3.152,0.137,4.091,0.411c1.261,0.371,2.341,1.031,3.241,1.979
			c0.899,0.948,1.583,2.108,2.053,3.482c0.469,1.373,0.704,3.066,0.704,5.08c0,1.769-0.22,3.295-0.66,4.575
			c-0.538,1.564-1.305,2.83-2.302,3.798c-0.753,0.733-1.769,1.305-3.05,1.716c-0.958,0.303-2.238,0.454-3.841,0.454h-8.167V45.65
			H403.522z M407.863,49.287v14.236h3.24c1.212,0,2.087-0.068,2.625-0.205c0.703-0.176,1.287-0.474,1.752-0.894
			c0.464-0.42,0.843-1.111,1.137-2.074c0.293-0.963,0.44-2.275,0.44-3.937c0-1.661-0.147-2.937-0.44-3.827
			c-0.294-0.889-0.704-1.583-1.232-2.082c-0.527-0.498-1.197-0.836-2.009-1.012c-0.606-0.137-1.794-0.205-3.562-0.205
			C409.814,49.287,407.863,49.287,407.863,49.287z"/>
		<path fill="#FFFFFF" d="M425.222,67.145V45.65h15.937v3.636h-11.597v4.765h10.791v3.621h-10.791v5.85h12.008v3.622L425.222,67.145
			L425.222,67.145z"/>
		<path fill="#FFFFFF" d="M445.221,45.65h4.34v11.642c0,1.847,0.053,3.045,0.161,3.592c0.186,0.88,0.628,1.586,1.327,2.118
			c0.698,0.533,1.654,0.8,2.866,0.8c1.231,0,2.16-0.252,2.786-0.756c0.625-0.503,1.002-1.121,1.129-1.854s0.19-1.95,0.19-3.651
			V45.65h4.34v11.29c0,2.58-0.118,4.403-0.352,5.469s-0.667,1.965-1.298,2.698c-0.63,0.733-1.474,1.317-2.529,1.752
			c-1.056,0.435-2.434,0.652-4.135,0.652c-2.053,0-3.609-0.237-4.67-0.711c-1.06-0.474-1.899-1.09-2.514-1.847
			c-0.616-0.757-1.021-1.552-1.217-2.383c-0.284-1.231-0.426-3.05-0.426-5.454V45.65H445.221z"/>
		<path fill="#FFFFFF" d="M465.835,60.151l4.222-0.411c0.255,1.418,0.77,2.459,1.547,3.124s1.826,0.997,3.145,0.997
			c1.397,0,2.451-0.296,3.16-0.887c0.708-0.591,1.063-1.283,1.063-2.074c0-0.509-0.149-0.941-0.447-1.298s-0.818-0.667-1.561-0.931
			c-0.508-0.176-1.666-0.488-3.475-0.938c-2.327-0.576-3.959-1.285-4.897-2.126c-1.319-1.183-1.979-2.624-1.979-4.325
			c0-1.095,0.31-2.119,0.931-3.072s1.515-1.679,2.683-2.177c1.168-0.499,2.578-0.748,4.23-0.748c2.698,0,4.728,0.592,6.092,1.774
			c1.363,1.183,2.079,2.761,2.148,4.735l-4.34,0.191c-0.186-1.104-0.584-1.899-1.195-2.383s-1.527-0.726-2.749-0.726
			c-1.261,0-2.249,0.26-2.962,0.777c-0.46,0.333-0.689,0.777-0.689,1.335c0,0.508,0.215,0.943,0.645,1.305
			c0.547,0.46,1.877,0.938,3.988,1.437s3.673,1.014,4.684,1.547c1.012,0.533,1.804,1.261,2.375,2.185
			c0.572,0.924,0.858,2.064,0.858,3.424c0,1.231-0.343,2.385-1.026,3.46c-0.684,1.075-1.652,1.875-2.903,2.397
			c-1.252,0.523-2.81,0.784-4.677,0.784c-2.717,0-4.804-0.628-6.26-1.884C466.989,64.386,466.119,62.555,465.835,60.151z"/>
		<path fill="#FFFFFF" d="M220.504,103.178V81.683h15.541v2.537h-12.697v6.583h11.891v2.522h-11.891v7.316h13.195v2.537
			C236.543,103.178,220.504,103.178,220.504,103.178z"/>
		<path fill="#FFFFFF" d="M240.386,103.178V81.683h4.281l5.088,15.22c0.469,1.417,0.811,2.478,1.026,3.181
			c0.244-0.782,0.625-1.931,1.144-3.446l5.146-14.955h3.827v21.495h-2.742v-17.99l-6.246,17.99h-2.566l-6.217-18.298v18.298
			C243.127,103.178,240.386,103.178,240.386,103.178z"/>
		<path fill="#FFFFFF" d="M287.45,95.275l4.208,1.334c-0.645,2.346-1.718,4.088-3.218,5.227s-3.404,1.708-5.711,1.708
			c-2.854,0-5.2-0.975-7.038-2.925c-1.838-1.95-2.756-4.616-2.756-7.998c0-3.577,0.924-6.356,2.771-8.335s4.276-2.969,7.287-2.969
			c2.629,0,4.765,0.777,6.407,2.331c0.977,0.919,1.71,2.239,2.199,3.959l-4.296,1.026c-0.254-1.114-0.785-1.994-1.591-2.639
			c-0.807-0.645-1.786-0.968-2.94-0.968c-1.594,0-2.886,0.571-3.878,1.715s-1.488,2.997-1.488,5.557
			c0,2.718,0.489,4.653,1.466,5.806s2.248,1.73,3.812,1.73c1.153,0,2.145-0.367,2.976-1.1
			C286.492,98.002,287.089,96.849,287.45,95.275z"/>
		<path fill="#FFFFFF" d="M295.353,81.683h4.34v11.642c0,1.847,0.054,3.045,0.161,3.592c0.185,0.88,0.628,1.586,1.327,2.118
			c0.699,0.533,1.654,0.8,2.866,0.8c1.232,0,2.16-0.252,2.786-0.756c0.625-0.503,1.002-1.121,1.129-1.854
			c0.127-0.733,0.19-1.95,0.19-3.651V81.683h4.34v11.29c0,2.58-0.117,4.403-0.352,5.469c-0.234,1.065-0.667,1.965-1.297,2.698
			s-1.474,1.317-2.529,1.752s-2.434,0.652-4.135,0.652c-2.053,0-3.609-0.237-4.67-0.711s-1.899-1.09-2.514-1.847
			c-0.616-0.757-1.022-1.552-1.217-2.383c-0.284-1.231-0.425-3.05-0.425-5.454V81.683z"/>
		<path fill="#FFFFFF" d="M317.082,103.178V81.683h9.135c2.297,0,3.966,0.193,5.007,0.579c1.041,0.387,1.875,1.073,2.5,2.06
			c0.626,0.987,0.938,2.116,0.938,3.387c0,1.613-0.474,2.945-1.422,3.996s-2.366,1.713-4.252,1.986
			c0.938,0.548,1.713,1.149,2.323,1.804c0.611,0.655,1.434,1.818,2.471,3.49l2.625,4.193h-5.19l-3.138-4.677
			c-1.114-1.671-1.877-2.724-2.288-3.159c-0.41-0.435-0.846-0.733-1.305-0.894c-0.46-0.162-1.187-0.242-2.184-0.242h-0.88v8.973
			h-4.34V103.178z M321.422,90.774h3.211c2.082,0,3.382-0.088,3.9-0.264s0.924-0.479,1.217-0.909c0.294-0.43,0.44-0.968,0.44-1.612
			c0-0.724-0.193-1.307-0.579-1.753c-0.387-0.444-0.931-0.726-1.635-0.843c-0.352-0.049-1.408-0.073-3.168-0.073h-3.387v5.454
			H321.422z"/>
		<path fill="#FFFFFF" d="M338.621,103.178V81.683h4.34v21.495H338.621z"/>
		<path fill="#FFFFFF" d="M351.934,103.178V85.32h-6.378v-3.636h17.081v3.636h-6.363v17.858H351.934z"/>
		<path fill="#FFFFFF" d="M365.305,103.178V81.683h4.34v21.495H365.305z"/>
		<path fill="#FFFFFF" d="M373.795,81.683h8.592c1.701,0,2.969,0.071,3.805,0.213s1.584,0.437,2.244,0.887
			c0.659,0.45,1.209,1.049,1.649,1.797c0.44,0.747,0.659,1.586,0.659,2.514c0,1.007-0.271,1.931-0.814,2.771
			c-0.542,0.841-1.278,1.471-2.207,1.891c1.31,0.382,2.317,1.032,3.02,1.95c0.704,0.919,1.056,2,1.056,3.241
			c0,0.977-0.227,1.928-0.682,2.851c-0.454,0.924-1.075,1.662-1.862,2.214c-0.786,0.553-1.757,0.892-2.91,1.019
			c-0.724,0.078-2.468,0.127-5.234,0.147h-7.317V81.683H373.795z M378.135,85.261v4.97h2.844c1.691,0,2.741-0.024,3.152-0.073
			c0.742-0.088,1.327-0.345,1.752-0.77c0.425-0.425,0.638-0.984,0.638-1.679c0-0.664-0.183-1.204-0.55-1.62
			c-0.366-0.415-0.911-0.667-1.635-0.755c-0.43-0.049-1.667-0.073-3.71-0.073C380.626,85.261,378.135,85.261,378.135,85.261z
			 M378.135,93.809v5.748h4.017c1.564,0,2.556-0.044,2.976-0.132c0.645-0.117,1.17-0.403,1.576-0.857
			c0.405-0.455,0.608-1.063,0.608-1.826c0-0.645-0.156-1.192-0.47-1.642c-0.313-0.449-0.765-0.777-1.356-0.982
			c-0.592-0.205-1.875-0.308-3.849-0.308L378.135,93.809L378.135,93.809z"/>
		<path fill="#FFFFFF" d="M414.849,103.178h-4.721l-1.877-4.882h-8.592l-1.774,4.882h-4.604l8.372-21.495h4.589L414.849,103.178z
			 M406.858,94.674l-2.962-7.976l-2.903,7.976H406.858z"/>
	</g>
</g>
<path fill-rule="evenodd" clip-rule="evenodd" fill="#D0D2D3" d="M68.172,133.8c32.709,0,59.386-26.677,59.386-59.386
	c0-32.709-26.677-59.386-59.386-59.386S8.786,41.705,8.786,74.414C8.786,107.123,35.463,133.8,68.172,133.8z"/>
<line fill-rule="evenodd" clip-rule="evenodd" fill="none" stroke="#231F20" stroke-width="0.216" stroke-miterlimit="22.9256" x1="71.705" y1="95.61" x2="64.639" y2="96.114"/>
<radialGradient id="SVGID_1_" cx="68.1721" cy="74.414" r="82.134" gradientUnits="userSpaceOnUse">
	<stop  offset="0" style="stop-color:#FFFFFF"/>
	<stop  offset="1" style="stop-color:#D0D2D3"/>
</radialGradient>
<path fill-rule="evenodd" clip-rule="evenodd" fill="url(#SVGID_1_)" d="M68.172,132.492c31.988,0,58.078-26.09,58.078-58.078
	s-26.09-58.078-58.078-58.078c-31.988,0-58.078,26.09-58.078,58.078S36.184,132.492,68.172,132.492z"/>
<g>
	<linearGradient id="SVGID_2_" gradientUnits="userSpaceOnUse" x1="40.2517" y1="79.9061" x2="90.0347" y2="121.679">
		<stop  offset="0" style="stop-color:#00ADEE"/>
		<stop  offset="0.58" style="stop-color:#2E3191"/>
		<stop  offset="1" style="stop-color:#2E3191"/>
	</linearGradient>
	<path fill-rule="evenodd" clip-rule="evenodd" fill="url(#SVGID_2_)" d="M108.266,111.484H87.572
		c-7.025-16.615-22.546-29.762-39.559-35.289c-20.4-6.94-32.072,17.073-12.066,21.346c11.212,1.602,22.8-0.738,34.671-6.046
		l8.76,10.364c-14.246,6.19-27.746,8.205-40.347,5.182c-10.447-3.207-17.357-8.266-17.52-17.397
		c-0.37-6.951,2.879-12.256,9.747-15.917C57.529,60.349,97.395,89.104,108.266,111.484z"/>
	<linearGradient id="SVGID_3_" gradientUnits="userSpaceOnUse" x1="73.9172" y1="11.3643" x2="73.9172" y2="89.0629">
		<stop  offset="0" style="stop-color:#FFF100"/>
		<stop  offset="0.33" style="stop-color:#EC1C24"/>
		<stop  offset="0.76" style="stop-color:#2E3191"/>
		<stop  offset="1" style="stop-color:#2E3191"/>
	</linearGradient>
	<path fill-rule="evenodd" clip-rule="evenodd" fill="url(#SVGID_3_)" d="M48.303,70.568c0.597-2.861,1.474-5.723,2.678-8.584
		c6.27-15.432,10.517-27.815,3.009-40.578h0.299c35.941,4.53,60.915,36.033,36.579,68.356L74.006,89.67l6.997-7.472
		c22.324-22.555,6.815-50.645-18.134-54.254c2.792,18.177-7.005,32.556-9.288,49.611c-0.753,6.27-0.269,11.561,2.239,16.213
		l-7.066,0.505c-1.269-6.2-1.84-12.401-1.23-18.601C47.631,73.97,47.87,72.269,48.303,70.568z"/>
</g>
</svg>
